<mxfile host="app.diagrams.net" modified="2022-08-29T21:53:42.614Z" agent="5.0 (Windows NT 10.0; Win64; x64) AppleWebKit/537.36 (KHTML, like Gecko) Chrome/104.0.0.0 Safari/537.36" etag="GnTWrrv2D10_oou0Cdpy" version="20.2.7" type="github">
  <diagram id="kKzj97BFYAdb4l2TwpfY" name="PÃ¡gina-1">
    <mxGraphModel dx="868" dy="450" grid="1" gridSize="10" guides="1" tooltips="1" connect="1" arrows="1" fold="1" page="1" pageScale="1" pageWidth="827" pageHeight="1169" math="0" shadow="0">
      <root>
        <mxCell id="0" />
        <mxCell id="1" parent="0" />
        <mxCell id="pDdVO4dqc3OsG7awJ4Dg-2" value="&lt;font style=&quot;font-size: 14px;&quot;&gt;B&lt;/font&gt;" style="ellipse;whiteSpace=wrap;html=1;aspect=fixed;fontStyle=1;fillColor=#dae8fc;strokeColor=#6c8ebf;" vertex="1" parent="1">
          <mxGeometry x="190" y="150" width="40" height="40" as="geometry" />
        </mxCell>
        <mxCell id="pDdVO4dqc3OsG7awJ4Dg-6" value="" style="endArrow=classic;html=1;rounded=0;fontSize=14;" edge="1" parent="1">
          <mxGeometry width="50" height="50" relative="1" as="geometry">
            <mxPoint x="150" y="230" as="sourcePoint" />
            <mxPoint x="200" y="180" as="targetPoint" />
            <Array as="points" />
          </mxGeometry>
        </mxCell>
        <mxCell id="pDdVO4dqc3OsG7awJ4Dg-1" value="&lt;font style=&quot;font-size: 14px;&quot;&gt;A&lt;/font&gt;" style="ellipse;whiteSpace=wrap;html=1;aspect=fixed;fontStyle=1;fillColor=#dae8fc;strokeColor=#6c8ebf;" vertex="1" parent="1">
          <mxGeometry x="120" y="220" width="40" height="40" as="geometry" />
        </mxCell>
        <mxCell id="pDdVO4dqc3OsG7awJ4Dg-4" value="&lt;font style=&quot;font-size: 14px;&quot;&gt;C&lt;/font&gt;" style="ellipse;whiteSpace=wrap;html=1;aspect=fixed;fontStyle=1;fillColor=#dae8fc;strokeColor=#6c8ebf;" vertex="1" parent="1">
          <mxGeometry x="190" y="290" width="40" height="40" as="geometry" />
        </mxCell>
        <mxCell id="pDdVO4dqc3OsG7awJ4Dg-5" value="&lt;font style=&quot;font-size: 14px;&quot;&gt;D&lt;/font&gt;" style="ellipse;whiteSpace=wrap;html=1;aspect=fixed;fontStyle=1;fillColor=#dae8fc;strokeColor=#6c8ebf;" vertex="1" parent="1">
          <mxGeometry x="280" y="80" width="40" height="40" as="geometry" />
        </mxCell>
        <mxCell id="pDdVO4dqc3OsG7awJ4Dg-8" value="" style="endArrow=classic;html=1;rounded=0;fontSize=14;entryX=0;entryY=0;entryDx=0;entryDy=0;" edge="1" parent="1" target="pDdVO4dqc3OsG7awJ4Dg-4">
          <mxGeometry width="50" height="50" relative="1" as="geometry">
            <mxPoint x="160" y="240" as="sourcePoint" />
            <mxPoint x="210" y="190" as="targetPoint" />
            <Array as="points" />
          </mxGeometry>
        </mxCell>
        <mxCell id="pDdVO4dqc3OsG7awJ4Dg-13" value="&lt;font style=&quot;font-size: 14px;&quot;&gt;E&lt;/font&gt;" style="ellipse;whiteSpace=wrap;html=1;aspect=fixed;fontStyle=1;fillColor=#dae8fc;strokeColor=#6c8ebf;" vertex="1" parent="1">
          <mxGeometry x="280" y="170" width="40" height="40" as="geometry" />
        </mxCell>
        <mxCell id="pDdVO4dqc3OsG7awJ4Dg-14" value="" style="endArrow=classic;html=1;rounded=0;fontSize=14;entryX=0;entryY=1;entryDx=0;entryDy=0;" edge="1" parent="1" target="pDdVO4dqc3OsG7awJ4Dg-5">
          <mxGeometry width="50" height="50" relative="1" as="geometry">
            <mxPoint x="230" y="160" as="sourcePoint" />
            <mxPoint x="280" y="110" as="targetPoint" />
          </mxGeometry>
        </mxCell>
        <mxCell id="pDdVO4dqc3OsG7awJ4Dg-15" value="" style="endArrow=classic;html=1;rounded=0;fontSize=14;" edge="1" parent="1">
          <mxGeometry width="50" height="50" relative="1" as="geometry">
            <mxPoint x="230" y="180" as="sourcePoint" />
            <mxPoint x="280" y="190" as="targetPoint" />
          </mxGeometry>
        </mxCell>
        <mxCell id="pDdVO4dqc3OsG7awJ4Dg-17" value="&lt;font style=&quot;font-size: 14px;&quot;&gt;F&lt;/font&gt;" style="ellipse;whiteSpace=wrap;html=1;aspect=fixed;fontStyle=1;fillColor=#dae8fc;strokeColor=#6c8ebf;" vertex="1" parent="1">
          <mxGeometry x="280" y="260" width="40" height="40" as="geometry" />
        </mxCell>
        <mxCell id="pDdVO4dqc3OsG7awJ4Dg-18" value="&lt;font style=&quot;font-size: 14px;&quot;&gt;G&lt;/font&gt;" style="ellipse;whiteSpace=wrap;html=1;aspect=fixed;fontStyle=1;fillColor=#dae8fc;strokeColor=#6c8ebf;" vertex="1" parent="1">
          <mxGeometry x="280" y="350" width="40" height="40" as="geometry" />
        </mxCell>
        <mxCell id="pDdVO4dqc3OsG7awJ4Dg-19" value="&lt;font style=&quot;font-size: 14px;&quot;&gt;H&lt;/font&gt;" style="ellipse;whiteSpace=wrap;html=1;aspect=fixed;fontStyle=1;fillColor=#dae8fc;strokeColor=#6c8ebf;" vertex="1" parent="1">
          <mxGeometry x="280" y="440" width="40" height="40" as="geometry" />
        </mxCell>
        <mxCell id="pDdVO4dqc3OsG7awJ4Dg-20" value="" style="endArrow=classic;html=1;rounded=0;fontSize=14;" edge="1" parent="1">
          <mxGeometry width="50" height="50" relative="1" as="geometry">
            <mxPoint x="390" y="260" as="sourcePoint" />
            <mxPoint x="440" y="210" as="targetPoint" />
          </mxGeometry>
        </mxCell>
      </root>
    </mxGraphModel>
  </diagram>
</mxfile>
